<svg id="Layer_1" xmlns="http://www.w3.org/2000/svg" viewBox="0 0 292.18 409.22"><path d="M290.03,4.72c0-2.61-2.11-4.72-4.72-4.72H7.92C3.54,0,0,3.54,0,7.92v393.39c0,4.37,3.54,7.92,7.92,7.92h274.2c4.37,0,7.92-3.54,7.92-7.92v-42.46c0-4.37-3.54-7.92-7.92-7.92h-9.1c-.29,0-.59-.02-.88-.05l-8.57.42c-16.26,1-28.54,1-29.6-2.13-1.12-3.3-.8-9.76-.8-15.73l1.07-94.4c0-4.37,12.83-6.53,17.2-6.53l31.47-.38c9.28,0,9.27-4.04,9.27-8.42v-40c0-4.37-4.8-7.93-13.68-7.93h-27.06c-4.37,0-17.26-1.7-17.26-6.07l.4-89.6c.05-7.17,1.48-11.36,12.4-12,3.18-.19,9.83-.76,19.13-1.9l15.28-1.71c5.76-.85,8.64-2.56,8.64-5.11M133.42,175.78H57.77v-88.25c0-8.24,3.3-14,9.92-17.27,6.61-3.27,18.45-4.9,35.51-4.9,25.6,0,45.65,4.47,60.16,13.43,1.25.77,2.46,1.59,3.64,2.44,4.36,3.17,6.91,8.4,6.91,13.92v69.23c0,6.29-4.91,11.39-10.98,11.39h-29.52M161.8,235.19c11.17,1.52,12.11,10.22,12.11,16.52v71.67c0,5.53-2.55,10.75-6.91,13.92-1.18.85-2.39,1.67-3.64,2.44-14.52,8.96-34.56,13.43-60.16,13.43-17.07,0-28.91-1.63-35.51-4.9-6.62-3.27-9.92-9.03-9.92-24.83v-88.25s100.95,0,100.95,0" fill="#020202"/></svg>
